<svg width="1400" height="760" viewBox="0 0 1400 760" xmlns="http://www.w3.org/2000/svg">
  <defs>
    <radialGradient id="bg" cx="50%" cy="40%" r="70%">
      <stop offset="0%" stop-color="#fbfbfc"/>
      <stop offset="100%" stop-color="#f1f3f6"/>
    </radialGradient>
    <pattern id="dots" width="14" height="14" patternUnits="userSpaceOnUse">
      <circle cx="2.2" cy="2.2" r="1.2" fill="#d7dde7"/>
    </pattern>
    <filter id="soft" x="-20%" y="-20%" width="140%" height="140%">
      <feGaussianBlur stdDeviation="1.2"/>
    </filter>
  </defs>
  <rect width="1400" height="760" rx="20" fill="url(#bg)"/>
  <rect width="1400" height="760" rx="20" fill="url(#dots)" opacity="0.42"/>

  <g fill="#e4e8ef" stroke="#cad1dc" stroke-width="2">
    <path d="M132 226c44-51 146-87 220-72 32 6 54 20 66 44 14 28 6 62-15 90-14 18-40 35-66 40-24 6-55-1-84 3-50 6-95 34-132 20-53-21-42-88 11-125z"/>
    <path d="M380 446c26-17 59-23 83-12 29 13 36 44 20 72-14 23-47 40-76 40-30 1-57-17-63-43-7-27 11-45 36-57z"/>
    <path d="M620 180c31-25 92-31 130-17 35 12 60 37 72 68 13 36-5 74-32 96-31 24-67 35-102 35-31 0-62-3-83-27-24-27-24-71-7-103 5-10 13-20 22-28z"/>
    <path d="M665 364c18-14 46-16 67-6 25 11 34 34 25 58-9 25-32 43-57 49-28 7-63 1-79-24-15-25-1-60 24-77 6-4 13-8 20-10z"/>
    <path d="M774 232c42-53 154-96 251-82 55 8 95 28 117 62 27 40 25 92-1 132-25 38-64 61-112 74-43 11-92 8-138 12-42 3-79 20-120 17-44-3-92-31-90-78 2-45 47-87 93-106z"/>
    <path d="M1008 472c35-30 98-48 143-35 47 13 72 51 67 93-5 44-43 78-93 91-55 14-121-4-143-50-19-38-6-74 26-99z"/>
    <path d="M1158 276c31-15 78-11 109 12 34 25 44 65 30 98-14 33-54 58-93 56-39-3-73-35-75-70-2-42 27-77 68-96 9-4 18-8 27-10z"/>
    <path d="M1118 146c19-11 48-10 67 4 21 15 29 42 19 62-11 22-39 36-64 30-27-6-44-35-34-58 3-7 7-13 12-18z"/>
  </g>

  <g fill="#d8deea" opacity="0.65" filter="url(#soft)">
    <ellipse cx="240" cy="260" rx="120" ry="68"/>
    <ellipse cx="710" cy="226" rx="98" ry="58"/>
    <ellipse cx="952" cy="280" rx="198" ry="98"/>
    <ellipse cx="1062" cy="534" rx="120" ry="74"/>
  </g>
</svg>
